<mxfile host="app.diagrams.net" agent="Mozilla/5.0 (X11; Linux x86_64) AppleWebKit/537.36 (KHTML, like Gecko) Chrome/128.0.0.0 Safari/537.36" version="24.9.0">
  <diagram name="Page-1" id="eba1Yw4gGBtNmYtS9Vir">
    <mxGraphModel dx="11" dy="197" grid="1" gridSize="10" guides="1" tooltips="1" connect="1" arrows="1" fold="1" page="1" pageScale="1" pageWidth="850" pageHeight="1100" math="1" shadow="0">
      <root>
        <mxCell id="0" />
        <mxCell id="1" parent="0" />
        <mxCell id="wk3JwMtCGkdnrWTBIIif-1" value="" style="rounded=1;whiteSpace=wrap;html=1;strokeWidth=2.5;fillColor=#F3F3F4;shadow=0;textShadow=0;arcSize=5;fontFamily=Helvetica;strokeColor=default;" vertex="1" parent="1">
          <mxGeometry x="1140" y="1247" width="140" height="341" as="geometry" />
        </mxCell>
        <mxCell id="wk3JwMtCGkdnrWTBIIif-2" value="" style="rounded=1;whiteSpace=wrap;html=1;strokeWidth=2.5;fillColor=#F3F3F4;shadow=0;textShadow=0;arcSize=5;fontFamily=Helvetica;strokeColor=default;" vertex="1" parent="1">
          <mxGeometry x="980" y="1367" width="140" height="221" as="geometry" />
        </mxCell>
        <mxCell id="wk3JwMtCGkdnrWTBIIif-3" style="edgeStyle=orthogonalEdgeStyle;shape=connector;curved=0;rounded=1;hachureGap=4;orthogonalLoop=1;jettySize=auto;html=1;exitX=0.5;exitY=0;exitDx=0;exitDy=0;entryX=0.5;entryY=1;entryDx=0;entryDy=0;strokeColor=#000000;strokeWidth=2.5;align=center;verticalAlign=middle;fontFamily=Helvetica;fontSize=11;fontColor=default;labelBorderColor=none;labelBackgroundColor=default;endArrow=classic;endSize=2;" edge="1" parent="1" source="wk3JwMtCGkdnrWTBIIif-4" target="wk3JwMtCGkdnrWTBIIif-9">
          <mxGeometry relative="1" as="geometry" />
        </mxCell>
        <mxCell id="wk3JwMtCGkdnrWTBIIif-4" value="&lt;div&gt;&lt;font data-font-src=&quot;https://fonts.googleapis.com/css?family=Barlow&quot;&gt;Input&amp;nbsp;&lt;/font&gt;&lt;/div&gt;&lt;div&gt;&lt;font data-font-src=&quot;https://fonts.googleapis.com/css?family=Barlow&quot;&gt;Embedding&lt;/font&gt;&lt;/div&gt;" style="rounded=1;whiteSpace=wrap;html=1;strokeWidth=2.5;fillColor=#F2D8DA;shadow=0;textShadow=0;arcSize=5;fontFamily=Helvetica;strokeColor=default;" vertex="1" parent="1">
          <mxGeometry x="1010" y="1647" width="100" height="40" as="geometry" />
        </mxCell>
        <mxCell id="wk3JwMtCGkdnrWTBIIif-5" style="edgeStyle=orthogonalEdgeStyle;shape=connector;curved=0;rounded=1;hachureGap=4;orthogonalLoop=1;jettySize=auto;html=1;exitX=0.5;exitY=0;exitDx=0;exitDy=0;entryX=0.5;entryY=1;entryDx=0;entryDy=0;strokeColor=#000000;strokeWidth=2.5;align=center;verticalAlign=middle;fontFamily=Helvetica;fontSize=11;fontColor=default;labelBorderColor=none;labelBackgroundColor=default;endArrow=classic;endSize=2;" edge="1" parent="1" source="wk3JwMtCGkdnrWTBIIif-9" target="wk3JwMtCGkdnrWTBIIif-13">
          <mxGeometry relative="1" as="geometry" />
        </mxCell>
        <mxCell id="wk3JwMtCGkdnrWTBIIif-6" style="edgeStyle=orthogonalEdgeStyle;shape=connector;curved=0;rounded=1;hachureGap=4;orthogonalLoop=1;jettySize=auto;html=1;exitX=0.5;exitY=0;exitDx=0;exitDy=0;entryX=0.25;entryY=1;entryDx=0;entryDy=0;strokeColor=#000000;strokeWidth=2.5;align=center;verticalAlign=middle;fontFamily=Helvetica;fontSize=11;fontColor=default;labelBorderColor=none;labelBackgroundColor=default;endArrow=classic;endSize=2;" edge="1" parent="1" source="wk3JwMtCGkdnrWTBIIif-9" target="wk3JwMtCGkdnrWTBIIif-13">
          <mxGeometry relative="1" as="geometry">
            <Array as="points">
              <mxPoint x="1060" y="1567" />
              <mxPoint x="1035" y="1567" />
            </Array>
          </mxGeometry>
        </mxCell>
        <mxCell id="wk3JwMtCGkdnrWTBIIif-7" style="edgeStyle=orthogonalEdgeStyle;shape=connector;curved=0;rounded=1;hachureGap=4;orthogonalLoop=1;jettySize=auto;html=1;exitX=0.5;exitY=0;exitDx=0;exitDy=0;entryX=0.75;entryY=1;entryDx=0;entryDy=0;strokeColor=#000000;strokeWidth=2.5;align=center;verticalAlign=middle;fontFamily=Helvetica;fontSize=11;fontColor=default;labelBorderColor=none;labelBackgroundColor=default;endArrow=classic;endSize=2;" edge="1" parent="1" source="wk3JwMtCGkdnrWTBIIif-9" target="wk3JwMtCGkdnrWTBIIif-13">
          <mxGeometry relative="1" as="geometry">
            <Array as="points">
              <mxPoint x="1060" y="1567" />
              <mxPoint x="1085" y="1567" />
            </Array>
          </mxGeometry>
        </mxCell>
        <mxCell id="wk3JwMtCGkdnrWTBIIif-8" style="edgeStyle=orthogonalEdgeStyle;shape=connector;curved=0;rounded=1;hachureGap=4;orthogonalLoop=1;jettySize=auto;html=1;exitX=0.5;exitY=0;exitDx=0;exitDy=0;entryX=0;entryY=0.5;entryDx=0;entryDy=0;strokeColor=#000000;strokeWidth=2.5;align=center;verticalAlign=middle;fontFamily=Helvetica;fontSize=11;fontColor=default;labelBorderColor=none;labelBackgroundColor=default;endArrow=classic;endSize=2;" edge="1" parent="1" source="wk3JwMtCGkdnrWTBIIif-9" target="wk3JwMtCGkdnrWTBIIif-16">
          <mxGeometry relative="1" as="geometry">
            <Array as="points">
              <mxPoint x="1060" y="1577" />
              <mxPoint x="990" y="1577" />
              <mxPoint x="990" y="1485" />
              <mxPoint x="1010" y="1485" />
            </Array>
          </mxGeometry>
        </mxCell>
        <mxCell id="wk3JwMtCGkdnrWTBIIif-9" value="&lt;font style=&quot;&quot;&gt;$$+$$&lt;/font&gt;" style="ellipse;whiteSpace=wrap;html=1;aspect=fixed;hachureGap=4;fontFamily=Helvetica;fontSize=11;fontColor=default;labelBackgroundColor=none;strokeWidth=1.5;fontStyle=1" vertex="1" parent="1">
          <mxGeometry x="1052" y="1607" width="16" height="16" as="geometry" />
        </mxCell>
        <mxCell id="wk3JwMtCGkdnrWTBIIif-10" style="edgeStyle=orthogonalEdgeStyle;shape=connector;curved=0;rounded=1;hachureGap=4;orthogonalLoop=1;jettySize=auto;html=1;exitX=1;exitY=0.5;exitDx=0;exitDy=0;entryX=0;entryY=0.5;entryDx=0;entryDy=0;strokeColor=#000000;strokeWidth=2.5;align=center;verticalAlign=middle;fontFamily=Helvetica;fontSize=11;fontColor=default;labelBorderColor=none;labelBackgroundColor=default;endArrow=none;endSize=2;endFill=0;" edge="1" parent="1" source="wk3JwMtCGkdnrWTBIIif-11" target="wk3JwMtCGkdnrWTBIIif-9">
          <mxGeometry relative="1" as="geometry" />
        </mxCell>
        <mxCell id="wk3JwMtCGkdnrWTBIIif-11" value="&lt;font style=&quot;font-size: 71px;&quot;&gt;~&lt;/font&gt;" style="ellipse;whiteSpace=wrap;html=1;aspect=fixed;hachureGap=4;fontFamily=Helvetica;fontSize=11;fontColor=default;labelBackgroundColor=none;strokeWidth=2.5;" vertex="1" parent="1">
          <mxGeometry x="995" y="1597" width="36" height="36" as="geometry" />
        </mxCell>
        <mxCell id="wk3JwMtCGkdnrWTBIIif-12" style="edgeStyle=orthogonalEdgeStyle;shape=connector;curved=0;rounded=1;hachureGap=4;orthogonalLoop=1;jettySize=auto;html=1;exitX=0.5;exitY=0;exitDx=0;exitDy=0;entryX=0.5;entryY=1;entryDx=0;entryDy=0;strokeColor=#000000;strokeWidth=2.5;align=center;verticalAlign=middle;fontFamily=Helvetica;fontSize=11;fontColor=default;labelBorderColor=none;labelBackgroundColor=default;endArrow=none;endSize=2;endFill=0;" edge="1" parent="1" source="wk3JwMtCGkdnrWTBIIif-13" target="wk3JwMtCGkdnrWTBIIif-16">
          <mxGeometry relative="1" as="geometry" />
        </mxCell>
        <mxCell id="wk3JwMtCGkdnrWTBIIif-13" value="Multi-Head Attention" style="rounded=1;whiteSpace=wrap;html=1;strokeWidth=2.5;fillColor=#F2D6B3;shadow=0;textShadow=0;arcSize=5;fontFamily=Helvetica;strokeColor=default;" vertex="1" parent="1">
          <mxGeometry x="1010" y="1505" width="100" height="40" as="geometry" />
        </mxCell>
        <mxCell id="wk3JwMtCGkdnrWTBIIif-14" style="edgeStyle=orthogonalEdgeStyle;shape=connector;curved=0;rounded=1;hachureGap=4;orthogonalLoop=1;jettySize=auto;html=1;exitX=0.5;exitY=0;exitDx=0;exitDy=0;entryX=0.5;entryY=1;entryDx=0;entryDy=0;strokeColor=#000000;strokeWidth=2.5;align=center;verticalAlign=middle;fontFamily=Helvetica;fontSize=11;fontColor=default;labelBorderColor=none;labelBackgroundColor=default;endArrow=classic;endSize=2;" edge="1" parent="1" source="wk3JwMtCGkdnrWTBIIif-16" target="wk3JwMtCGkdnrWTBIIif-18">
          <mxGeometry relative="1" as="geometry" />
        </mxCell>
        <mxCell id="wk3JwMtCGkdnrWTBIIif-15" style="edgeStyle=orthogonalEdgeStyle;shape=connector;curved=0;rounded=1;hachureGap=4;orthogonalLoop=1;jettySize=auto;html=1;exitX=0.5;exitY=0;exitDx=0;exitDy=0;entryX=0;entryY=0.5;entryDx=0;entryDy=0;strokeColor=#000000;strokeWidth=2.5;align=center;verticalAlign=middle;fontFamily=Helvetica;fontSize=11;fontColor=default;labelBorderColor=none;labelBackgroundColor=default;endArrow=classic;endSize=2;" edge="1" parent="1" source="wk3JwMtCGkdnrWTBIIif-16" target="wk3JwMtCGkdnrWTBIIif-21">
          <mxGeometry relative="1" as="geometry">
            <Array as="points">
              <mxPoint x="1060" y="1461" />
              <mxPoint x="990" y="1461" />
              <mxPoint x="990" y="1387" />
              <mxPoint x="1010" y="1387" />
            </Array>
          </mxGeometry>
        </mxCell>
        <mxCell id="wk3JwMtCGkdnrWTBIIif-16" value="Add &amp;amp; Norm" style="rounded=1;whiteSpace=wrap;html=1;strokeWidth=2.5;fillColor=#F1F2C2;shadow=0;textShadow=0;arcSize=5;fontFamily=Helvetica;strokeColor=default;" vertex="1" parent="1">
          <mxGeometry x="1010" y="1472" width="100" height="25" as="geometry" />
        </mxCell>
        <mxCell id="wk3JwMtCGkdnrWTBIIif-17" style="edgeStyle=orthogonalEdgeStyle;shape=connector;curved=0;rounded=1;hachureGap=4;orthogonalLoop=1;jettySize=auto;html=1;exitX=0.5;exitY=0;exitDx=0;exitDy=0;entryX=0.5;entryY=1;entryDx=0;entryDy=0;strokeColor=#000000;strokeWidth=2.5;align=center;verticalAlign=middle;fontFamily=Helvetica;fontSize=11;fontColor=default;labelBorderColor=none;labelBackgroundColor=default;endArrow=none;endSize=2;endFill=0;" edge="1" parent="1" source="wk3JwMtCGkdnrWTBIIif-18" target="wk3JwMtCGkdnrWTBIIif-21">
          <mxGeometry relative="1" as="geometry" />
        </mxCell>
        <mxCell id="wk3JwMtCGkdnrWTBIIif-18" value="&lt;div&gt;&lt;font data-font-src=&quot;https://fonts.googleapis.com/css?family=Barlow&quot;&gt;Feed&lt;/font&gt;&lt;/div&gt;&lt;div&gt;&lt;font data-font-src=&quot;https://fonts.googleapis.com/css?family=Barlow&quot;&gt;Forward&lt;/font&gt;&lt;/div&gt;" style="rounded=1;whiteSpace=wrap;html=1;strokeWidth=2.5;fillColor=#C2E9F2;shadow=0;textShadow=0;arcSize=5;fontFamily=Helvetica;strokeColor=default;" vertex="1" parent="1">
          <mxGeometry x="1010" y="1407" width="100" height="40" as="geometry" />
        </mxCell>
        <mxCell id="wk3JwMtCGkdnrWTBIIif-19" style="edgeStyle=orthogonalEdgeStyle;shape=connector;curved=0;rounded=1;hachureGap=4;orthogonalLoop=1;jettySize=auto;html=1;exitX=0.5;exitY=0;exitDx=0;exitDy=0;entryX=0.5;entryY=1;entryDx=0;entryDy=0;strokeColor=#000000;strokeWidth=2.5;align=center;verticalAlign=middle;fontFamily=Helvetica;fontSize=11;fontColor=default;labelBorderColor=none;labelBackgroundColor=default;endArrow=classic;endSize=2;" edge="1" parent="1" source="wk3JwMtCGkdnrWTBIIif-21" target="wk3JwMtCGkdnrWTBIIif-38">
          <mxGeometry relative="1" as="geometry">
            <Array as="points">
              <mxPoint x="1060" y="1357" />
              <mxPoint x="1130" y="1357" />
              <mxPoint x="1130" y="1447" />
              <mxPoint x="1200" y="1447" />
            </Array>
          </mxGeometry>
        </mxCell>
        <mxCell id="wk3JwMtCGkdnrWTBIIif-20" style="edgeStyle=orthogonalEdgeStyle;shape=connector;curved=0;rounded=1;hachureGap=4;orthogonalLoop=1;jettySize=auto;html=1;exitX=0.5;exitY=0;exitDx=0;exitDy=0;entryX=0.25;entryY=1;entryDx=0;entryDy=0;strokeColor=#000000;strokeWidth=2.5;align=center;verticalAlign=middle;fontFamily=Helvetica;fontSize=11;fontColor=default;labelBorderColor=none;labelBackgroundColor=default;endArrow=classic;endSize=2;" edge="1" parent="1" source="wk3JwMtCGkdnrWTBIIif-21" target="wk3JwMtCGkdnrWTBIIif-38">
          <mxGeometry relative="1" as="geometry">
            <Array as="points">
              <mxPoint x="1060" y="1357" />
              <mxPoint x="1130" y="1357" />
              <mxPoint x="1130" y="1447" />
              <mxPoint x="1175" y="1447" />
            </Array>
          </mxGeometry>
        </mxCell>
        <mxCell id="wk3JwMtCGkdnrWTBIIif-21" value="Add &amp;amp; Norm" style="rounded=1;whiteSpace=wrap;html=1;strokeWidth=2.5;fillColor=#F1F2C2;shadow=0;textShadow=0;arcSize=5;fontFamily=Helvetica;strokeColor=default;" vertex="1" parent="1">
          <mxGeometry x="1010" y="1374" width="100" height="25" as="geometry" />
        </mxCell>
        <mxCell id="wk3JwMtCGkdnrWTBIIif-22" value="&lt;font style=&quot;font-size: 16px;&quot;&gt;Positional&lt;/font&gt;&lt;div&gt;&lt;font style=&quot;font-size: 16px;&quot;&gt;Encoding&lt;/font&gt;&lt;/div&gt;" style="text;html=1;align=center;verticalAlign=middle;whiteSpace=wrap;rounded=0;fontFamily=Helvetica;fontSize=11;fontColor=default;labelBackgroundColor=none;fillColor=none;" vertex="1" parent="1">
          <mxGeometry x="920" y="1600" width="70" height="30" as="geometry" />
        </mxCell>
        <mxCell id="wk3JwMtCGkdnrWTBIIif-23" style="edgeStyle=orthogonalEdgeStyle;shape=connector;curved=0;rounded=1;hachureGap=4;orthogonalLoop=1;jettySize=auto;html=1;exitX=0.5;exitY=0;exitDx=0;exitDy=0;entryX=0.5;entryY=1;entryDx=0;entryDy=0;strokeColor=#000000;strokeWidth=2.5;align=center;verticalAlign=middle;fontFamily=Helvetica;fontSize=11;fontColor=default;labelBorderColor=none;labelBackgroundColor=default;endArrow=classic;endSize=2;" edge="1" parent="1" source="wk3JwMtCGkdnrWTBIIif-24" target="wk3JwMtCGkdnrWTBIIif-29">
          <mxGeometry relative="1" as="geometry" />
        </mxCell>
        <mxCell id="wk3JwMtCGkdnrWTBIIif-24" value="&lt;div&gt;&lt;font data-font-src=&quot;https://fonts.googleapis.com/css?family=Barlow&quot;&gt;Output&amp;nbsp;&lt;/font&gt;&lt;/div&gt;&lt;div&gt;&lt;font data-font-src=&quot;https://fonts.googleapis.com/css?family=Barlow&quot;&gt;Embedding&lt;/font&gt;&lt;/div&gt;" style="rounded=1;whiteSpace=wrap;html=1;strokeWidth=2.5;fillColor=#F2D8DA;shadow=0;textShadow=0;arcSize=5;fontFamily=Helvetica;strokeColor=default;" vertex="1" parent="1">
          <mxGeometry x="1150" y="1647" width="100" height="40" as="geometry" />
        </mxCell>
        <mxCell id="wk3JwMtCGkdnrWTBIIif-25" style="edgeStyle=orthogonalEdgeStyle;shape=connector;curved=0;rounded=1;hachureGap=4;orthogonalLoop=1;jettySize=auto;html=1;exitX=0.5;exitY=0;exitDx=0;exitDy=0;entryX=0.5;entryY=1;entryDx=0;entryDy=0;strokeColor=#000000;strokeWidth=2.5;align=center;verticalAlign=middle;fontFamily=Helvetica;fontSize=11;fontColor=default;labelBorderColor=none;labelBackgroundColor=default;endArrow=classic;endSize=2;" edge="1" parent="1" source="wk3JwMtCGkdnrWTBIIif-29" target="wk3JwMtCGkdnrWTBIIif-33">
          <mxGeometry relative="1" as="geometry" />
        </mxCell>
        <mxCell id="wk3JwMtCGkdnrWTBIIif-26" style="edgeStyle=orthogonalEdgeStyle;shape=connector;curved=0;rounded=1;hachureGap=4;orthogonalLoop=1;jettySize=auto;html=1;exitX=0.5;exitY=0;exitDx=0;exitDy=0;entryX=0.25;entryY=1;entryDx=0;entryDy=0;strokeColor=#000000;strokeWidth=2.5;align=center;verticalAlign=middle;fontFamily=Helvetica;fontSize=11;fontColor=default;labelBorderColor=none;labelBackgroundColor=default;endArrow=classic;endSize=2;" edge="1" parent="1" source="wk3JwMtCGkdnrWTBIIif-29" target="wk3JwMtCGkdnrWTBIIif-33">
          <mxGeometry relative="1" as="geometry">
            <Array as="points">
              <mxPoint x="1200" y="1567" />
              <mxPoint x="1175" y="1567" />
            </Array>
          </mxGeometry>
        </mxCell>
        <mxCell id="wk3JwMtCGkdnrWTBIIif-27" style="edgeStyle=orthogonalEdgeStyle;shape=connector;curved=0;rounded=1;hachureGap=4;orthogonalLoop=1;jettySize=auto;html=1;exitX=0.5;exitY=0;exitDx=0;exitDy=0;entryX=0.75;entryY=1;entryDx=0;entryDy=0;strokeColor=#000000;strokeWidth=2.5;align=center;verticalAlign=middle;fontFamily=Helvetica;fontSize=11;fontColor=default;labelBorderColor=none;labelBackgroundColor=default;endArrow=classic;endSize=2;" edge="1" parent="1" source="wk3JwMtCGkdnrWTBIIif-29" target="wk3JwMtCGkdnrWTBIIif-33">
          <mxGeometry relative="1" as="geometry">
            <Array as="points">
              <mxPoint x="1200" y="1567" />
              <mxPoint x="1225" y="1567" />
            </Array>
          </mxGeometry>
        </mxCell>
        <mxCell id="wk3JwMtCGkdnrWTBIIif-28" style="edgeStyle=orthogonalEdgeStyle;shape=connector;curved=0;rounded=1;hachureGap=4;orthogonalLoop=1;jettySize=auto;html=1;exitX=0.5;exitY=0;exitDx=0;exitDy=0;entryX=1;entryY=0.5;entryDx=0;entryDy=0;strokeColor=#000000;strokeWidth=2.5;align=center;verticalAlign=middle;fontFamily=Helvetica;fontSize=11;fontColor=default;labelBorderColor=none;labelBackgroundColor=default;endArrow=classic;endSize=2;" edge="1" parent="1" source="wk3JwMtCGkdnrWTBIIif-29" target="wk3JwMtCGkdnrWTBIIif-35">
          <mxGeometry relative="1" as="geometry">
            <Array as="points">
              <mxPoint x="1200" y="1577" />
              <mxPoint x="1270" y="1577" />
              <mxPoint x="1270" y="1477" />
              <mxPoint x="1250" y="1477" />
            </Array>
          </mxGeometry>
        </mxCell>
        <mxCell id="wk3JwMtCGkdnrWTBIIif-29" value="&lt;font style=&quot;&quot;&gt;$$+$$&lt;/font&gt;" style="ellipse;whiteSpace=wrap;html=1;aspect=fixed;hachureGap=4;fontFamily=Helvetica;fontSize=11;fontColor=default;labelBackgroundColor=none;strokeWidth=1.5;fontStyle=1" vertex="1" parent="1">
          <mxGeometry x="1192" y="1607" width="16" height="16" as="geometry" />
        </mxCell>
        <mxCell id="wk3JwMtCGkdnrWTBIIif-30" style="edgeStyle=orthogonalEdgeStyle;shape=connector;curved=0;rounded=1;hachureGap=4;orthogonalLoop=1;jettySize=auto;html=1;exitX=0;exitY=0.5;exitDx=0;exitDy=0;entryX=1;entryY=0.5;entryDx=0;entryDy=0;strokeColor=#000000;strokeWidth=2.5;align=center;verticalAlign=middle;fontFamily=Helvetica;fontSize=11;fontColor=default;labelBorderColor=none;labelBackgroundColor=default;endArrow=none;endSize=2;endFill=0;" edge="1" parent="1" source="wk3JwMtCGkdnrWTBIIif-31" target="wk3JwMtCGkdnrWTBIIif-29">
          <mxGeometry relative="1" as="geometry" />
        </mxCell>
        <mxCell id="wk3JwMtCGkdnrWTBIIif-31" value="&lt;font style=&quot;font-size: 71px;&quot;&gt;~&lt;/font&gt;" style="ellipse;whiteSpace=wrap;html=1;aspect=fixed;hachureGap=4;fontFamily=Helvetica;fontSize=11;fontColor=default;labelBackgroundColor=none;strokeWidth=2.5;" vertex="1" parent="1">
          <mxGeometry x="1234" y="1597" width="36" height="36" as="geometry" />
        </mxCell>
        <mxCell id="wk3JwMtCGkdnrWTBIIif-32" style="edgeStyle=orthogonalEdgeStyle;shape=connector;curved=0;rounded=1;hachureGap=4;orthogonalLoop=1;jettySize=auto;html=1;exitX=0.5;exitY=0;exitDx=0;exitDy=0;entryX=0.5;entryY=1;entryDx=0;entryDy=0;strokeColor=#000000;strokeWidth=2.5;align=center;verticalAlign=middle;fontFamily=Helvetica;fontSize=11;fontColor=default;labelBorderColor=none;labelBackgroundColor=default;endArrow=none;endSize=2;endFill=0;" edge="1" parent="1" source="wk3JwMtCGkdnrWTBIIif-33" target="wk3JwMtCGkdnrWTBIIif-35">
          <mxGeometry relative="1" as="geometry" />
        </mxCell>
        <mxCell id="wk3JwMtCGkdnrWTBIIif-33" value="Masked&lt;div&gt;Multi-Head Attention&lt;/div&gt;" style="rounded=1;whiteSpace=wrap;html=1;strokeWidth=2.5;fillColor=#F2D6B3;shadow=0;textShadow=0;arcSize=5;fontFamily=Helvetica;strokeColor=default;" vertex="1" parent="1">
          <mxGeometry x="1150" y="1497" width="100" height="50" as="geometry" />
        </mxCell>
        <mxCell id="wk3JwMtCGkdnrWTBIIif-34" style="edgeStyle=orthogonalEdgeStyle;shape=connector;curved=0;rounded=1;hachureGap=4;orthogonalLoop=1;jettySize=auto;html=1;exitX=0.5;exitY=0;exitDx=0;exitDy=0;entryX=1;entryY=0.5;entryDx=0;entryDy=0;strokeColor=#000000;strokeWidth=2.5;align=center;verticalAlign=middle;fontFamily=Helvetica;fontSize=11;fontColor=default;labelBorderColor=none;labelBackgroundColor=default;endArrow=classic;endSize=2;" edge="1" parent="1" source="wk3JwMtCGkdnrWTBIIif-35" target="wk3JwMtCGkdnrWTBIIif-42">
          <mxGeometry relative="1" as="geometry">
            <Array as="points">
              <mxPoint x="1200" y="1457" />
              <mxPoint x="1270" y="1457" />
              <mxPoint x="1270" y="1365" />
              <mxPoint x="1250" y="1365" />
            </Array>
          </mxGeometry>
        </mxCell>
        <mxCell id="wk3JwMtCGkdnrWTBIIif-35" value="Add &amp;amp; Norm" style="rounded=1;whiteSpace=wrap;html=1;strokeWidth=2.5;fillColor=#F1F2C2;shadow=0;textShadow=0;arcSize=5;fontFamily=Helvetica;strokeColor=default;" vertex="1" parent="1">
          <mxGeometry x="1150" y="1465" width="100" height="25" as="geometry" />
        </mxCell>
        <mxCell id="wk3JwMtCGkdnrWTBIIif-36" value="&lt;font style=&quot;font-size: 16px;&quot;&gt;Positional&lt;/font&gt;&lt;div&gt;&lt;font style=&quot;font-size: 16px;&quot;&gt;Encoding&lt;/font&gt;&lt;/div&gt;" style="text;html=1;align=center;verticalAlign=middle;whiteSpace=wrap;rounded=0;fontFamily=Helvetica;fontSize=11;fontColor=default;labelBackgroundColor=none;fillColor=none;" vertex="1" parent="1">
          <mxGeometry x="1280" y="1600" width="70" height="30" as="geometry" />
        </mxCell>
        <mxCell id="wk3JwMtCGkdnrWTBIIif-37" style="edgeStyle=orthogonalEdgeStyle;shape=connector;curved=0;rounded=1;hachureGap=4;orthogonalLoop=1;jettySize=auto;html=1;exitX=0.5;exitY=0;exitDx=0;exitDy=0;entryX=0.5;entryY=1;entryDx=0;entryDy=0;strokeColor=#000000;strokeWidth=2.5;align=center;verticalAlign=middle;fontFamily=Helvetica;fontSize=11;fontColor=default;labelBorderColor=none;labelBackgroundColor=default;endArrow=none;endSize=2;endFill=0;" edge="1" parent="1" source="wk3JwMtCGkdnrWTBIIif-38" target="wk3JwMtCGkdnrWTBIIif-42">
          <mxGeometry relative="1" as="geometry" />
        </mxCell>
        <mxCell id="wk3JwMtCGkdnrWTBIIif-38" value="&lt;div&gt;Multi-Head Attention&lt;/div&gt;" style="rounded=1;whiteSpace=wrap;html=1;strokeWidth=2.5;fillColor=#F2D6B3;shadow=0;textShadow=0;arcSize=5;fontFamily=Helvetica;strokeColor=default;" vertex="1" parent="1">
          <mxGeometry x="1150" y="1387" width="100" height="40" as="geometry" />
        </mxCell>
        <mxCell id="wk3JwMtCGkdnrWTBIIif-39" style="edgeStyle=orthogonalEdgeStyle;shape=connector;curved=0;rounded=1;hachureGap=4;orthogonalLoop=1;jettySize=auto;html=1;exitX=0.5;exitY=0;exitDx=0;exitDy=0;strokeColor=#000000;strokeWidth=2.5;align=center;verticalAlign=middle;fontFamily=Helvetica;fontSize=11;fontColor=default;labelBorderColor=none;labelBackgroundColor=default;endArrow=classic;endSize=2;entryX=0.75;entryY=1;entryDx=0;entryDy=0;" edge="1" parent="1" source="wk3JwMtCGkdnrWTBIIif-35" target="wk3JwMtCGkdnrWTBIIif-38">
          <mxGeometry relative="1" as="geometry">
            <mxPoint x="1236" y="1427" as="targetPoint" />
            <Array as="points">
              <mxPoint x="1200" y="1447" />
              <mxPoint x="1225" y="1447" />
            </Array>
          </mxGeometry>
        </mxCell>
        <mxCell id="wk3JwMtCGkdnrWTBIIif-40" style="edgeStyle=orthogonalEdgeStyle;shape=connector;curved=0;rounded=1;hachureGap=4;orthogonalLoop=1;jettySize=auto;html=1;exitX=0.5;exitY=0;exitDx=0;exitDy=0;entryX=0.5;entryY=1;entryDx=0;entryDy=0;strokeColor=#000000;strokeWidth=2.5;align=center;verticalAlign=middle;fontFamily=Helvetica;fontSize=11;fontColor=default;labelBorderColor=none;labelBackgroundColor=default;endArrow=classic;endSize=2;" edge="1" parent="1" source="wk3JwMtCGkdnrWTBIIif-42" target="wk3JwMtCGkdnrWTBIIif-44">
          <mxGeometry relative="1" as="geometry" />
        </mxCell>
        <mxCell id="wk3JwMtCGkdnrWTBIIif-41" style="edgeStyle=orthogonalEdgeStyle;shape=connector;curved=0;rounded=1;hachureGap=4;orthogonalLoop=1;jettySize=auto;html=1;exitX=0.5;exitY=0;exitDx=0;exitDy=0;entryX=1;entryY=0.5;entryDx=0;entryDy=0;strokeColor=#000000;strokeWidth=2.5;align=center;verticalAlign=middle;fontFamily=Helvetica;fontSize=11;fontColor=default;labelBorderColor=none;labelBackgroundColor=default;endArrow=classic;endSize=2;" edge="1" parent="1" source="wk3JwMtCGkdnrWTBIIif-42" target="wk3JwMtCGkdnrWTBIIif-46">
          <mxGeometry relative="1" as="geometry">
            <Array as="points">
              <mxPoint x="1200" y="1343" />
              <mxPoint x="1270" y="1343" />
              <mxPoint x="1270" y="1267" />
              <mxPoint x="1250" y="1267" />
            </Array>
          </mxGeometry>
        </mxCell>
        <mxCell id="wk3JwMtCGkdnrWTBIIif-42" value="Add &amp;amp; Norm" style="rounded=1;whiteSpace=wrap;html=1;strokeWidth=2.5;fillColor=#F1F2C2;shadow=0;textShadow=0;arcSize=5;fontFamily=Helvetica;strokeColor=default;" vertex="1" parent="1">
          <mxGeometry x="1150" y="1352" width="100" height="25" as="geometry" />
        </mxCell>
        <mxCell id="wk3JwMtCGkdnrWTBIIif-43" style="edgeStyle=orthogonalEdgeStyle;shape=connector;curved=0;rounded=1;hachureGap=4;orthogonalLoop=1;jettySize=auto;html=1;exitX=0.5;exitY=0;exitDx=0;exitDy=0;entryX=0.5;entryY=1;entryDx=0;entryDy=0;strokeColor=#000000;strokeWidth=2.5;align=center;verticalAlign=middle;fontFamily=Helvetica;fontSize=11;fontColor=default;labelBorderColor=none;labelBackgroundColor=default;endArrow=none;endSize=2;endFill=0;" edge="1" parent="1" source="wk3JwMtCGkdnrWTBIIif-44" target="wk3JwMtCGkdnrWTBIIif-46">
          <mxGeometry relative="1" as="geometry" />
        </mxCell>
        <mxCell id="wk3JwMtCGkdnrWTBIIif-44" value="&lt;div&gt;&lt;font data-font-src=&quot;https://fonts.googleapis.com/css?family=Barlow&quot;&gt;Feed&lt;/font&gt;&lt;/div&gt;&lt;div&gt;&lt;font data-font-src=&quot;https://fonts.googleapis.com/css?family=Barlow&quot;&gt;Forward&lt;/font&gt;&lt;/div&gt;" style="rounded=1;whiteSpace=wrap;html=1;strokeWidth=2.5;fillColor=#C2E9F2;shadow=0;textShadow=0;arcSize=5;fontFamily=Helvetica;strokeColor=default;" vertex="1" parent="1">
          <mxGeometry x="1150" y="1287" width="100" height="40" as="geometry" />
        </mxCell>
        <mxCell id="wk3JwMtCGkdnrWTBIIif-45" style="edgeStyle=orthogonalEdgeStyle;shape=connector;curved=0;rounded=1;hachureGap=4;orthogonalLoop=1;jettySize=auto;html=1;exitX=0.5;exitY=0;exitDx=0;exitDy=0;entryX=0.5;entryY=1;entryDx=0;entryDy=0;strokeColor=#000000;strokeWidth=2.5;align=center;verticalAlign=middle;fontFamily=Helvetica;fontSize=11;fontColor=default;labelBorderColor=none;labelBackgroundColor=default;endArrow=classic;endSize=2;" edge="1" parent="1" source="wk3JwMtCGkdnrWTBIIif-46" target="wk3JwMtCGkdnrWTBIIif-50">
          <mxGeometry relative="1" as="geometry" />
        </mxCell>
        <mxCell id="wk3JwMtCGkdnrWTBIIif-46" value="Add &amp;amp; Norm" style="rounded=1;whiteSpace=wrap;html=1;strokeWidth=2.5;fillColor=#F1F2C2;shadow=0;textShadow=0;arcSize=5;fontFamily=Helvetica;strokeColor=default;" vertex="1" parent="1">
          <mxGeometry x="1150" y="1254" width="100" height="25" as="geometry" />
        </mxCell>
        <mxCell id="wk3JwMtCGkdnrWTBIIif-47" style="edgeStyle=orthogonalEdgeStyle;shape=connector;curved=0;rounded=1;hachureGap=4;orthogonalLoop=1;jettySize=auto;html=1;exitX=0.5;exitY=0;exitDx=0;exitDy=0;strokeColor=#000000;strokeWidth=2.5;align=center;verticalAlign=middle;fontFamily=Helvetica;fontSize=11;fontColor=default;labelBorderColor=none;labelBackgroundColor=default;endArrow=classic;endSize=2;" edge="1" parent="1" source="wk3JwMtCGkdnrWTBIIif-48">
          <mxGeometry relative="1" as="geometry">
            <mxPoint x="1200.1111111111113" y="1154" as="targetPoint" />
          </mxGeometry>
        </mxCell>
        <mxCell id="wk3JwMtCGkdnrWTBIIif-48" value="Softmax" style="rounded=1;whiteSpace=wrap;html=1;strokeWidth=2.5;fillColor=#CCE7CF;shadow=0;textShadow=0;arcSize=5;fontFamily=Helvetica;strokeColor=default;" vertex="1" parent="1">
          <mxGeometry x="1150" y="1173" width="100" height="20" as="geometry" />
        </mxCell>
        <mxCell id="wk3JwMtCGkdnrWTBIIif-49" style="edgeStyle=orthogonalEdgeStyle;shape=connector;curved=0;rounded=1;hachureGap=4;orthogonalLoop=1;jettySize=auto;html=1;exitX=0.5;exitY=0;exitDx=0;exitDy=0;entryX=0.5;entryY=1;entryDx=0;entryDy=0;strokeColor=#000000;strokeWidth=2.5;align=center;verticalAlign=middle;fontFamily=Helvetica;fontSize=11;fontColor=default;labelBorderColor=none;labelBackgroundColor=default;endArrow=classic;endSize=2;" edge="1" parent="1" source="wk3JwMtCGkdnrWTBIIif-50" target="wk3JwMtCGkdnrWTBIIif-48">
          <mxGeometry relative="1" as="geometry" />
        </mxCell>
        <mxCell id="wk3JwMtCGkdnrWTBIIif-50" value="Linear" style="rounded=1;whiteSpace=wrap;html=1;strokeWidth=2.5;fillColor=#DBDFEF;shadow=0;textShadow=0;arcSize=5;fontFamily=Helvetica;strokeColor=default;" vertex="1" parent="1">
          <mxGeometry x="1150" y="1212" width="100" height="20" as="geometry" />
        </mxCell>
        <mxCell id="wk3JwMtCGkdnrWTBIIif-51" value="&lt;span style=&quot;font-size: 16px;&quot;&gt;$$N\times$$&lt;/span&gt;" style="text;html=1;align=center;verticalAlign=middle;whiteSpace=wrap;rounded=0;fontFamily=Helvetica;fontSize=11;fontColor=default;labelBackgroundColor=none;fillColor=none;" vertex="1" parent="1">
          <mxGeometry x="1280" y="1247" width="40" height="340" as="geometry" />
        </mxCell>
        <mxCell id="wk3JwMtCGkdnrWTBIIif-52" value="&lt;span style=&quot;font-size: 16px;&quot;&gt;$$N\times$$&lt;/span&gt;" style="text;html=1;align=center;verticalAlign=middle;whiteSpace=wrap;rounded=0;fontFamily=Helvetica;fontSize=11;fontColor=default;labelBackgroundColor=none;fillColor=none;fontStyle=0" vertex="1" parent="1">
          <mxGeometry x="940" y="1367" width="40" height="220" as="geometry" />
        </mxCell>
        <mxCell id="wk3JwMtCGkdnrWTBIIif-53" value="&lt;span style=&quot;font-size: 16px;&quot;&gt;Output&lt;/span&gt;&lt;div&gt;&lt;span style=&quot;font-size: 16px;&quot;&gt;Probabilities&lt;/span&gt;&lt;/div&gt;" style="text;html=1;align=center;verticalAlign=middle;whiteSpace=wrap;rounded=0;fontFamily=Helvetica;fontSize=11;fontColor=default;labelBackgroundColor=none;fillColor=none;" vertex="1" parent="1">
          <mxGeometry x="1150" y="1120" width="100" height="30" as="geometry" />
        </mxCell>
        <mxCell id="wk3JwMtCGkdnrWTBIIif-54" style="edgeStyle=orthogonalEdgeStyle;shape=connector;curved=0;rounded=1;hachureGap=4;orthogonalLoop=1;jettySize=auto;html=1;exitX=0.5;exitY=0;exitDx=0;exitDy=0;entryX=0.5;entryY=1;entryDx=0;entryDy=0;strokeColor=#000000;strokeWidth=2.5;align=center;verticalAlign=middle;fontFamily=Helvetica;fontSize=11;fontColor=default;labelBorderColor=none;labelBackgroundColor=default;endArrow=classic;endSize=2;" edge="1" parent="1" source="wk3JwMtCGkdnrWTBIIif-55" target="wk3JwMtCGkdnrWTBIIif-4">
          <mxGeometry relative="1" as="geometry" />
        </mxCell>
        <mxCell id="wk3JwMtCGkdnrWTBIIif-55" value="&lt;span style=&quot;font-size: 16px;&quot;&gt;Inputs&lt;/span&gt;" style="text;html=1;align=center;verticalAlign=top;whiteSpace=wrap;rounded=0;fontFamily=Helvetica;fontSize=11;fontColor=default;labelBackgroundColor=none;fillColor=none;" vertex="1" parent="1">
          <mxGeometry x="1025" y="1717" width="70" height="25" as="geometry" />
        </mxCell>
        <mxCell id="wk3JwMtCGkdnrWTBIIif-56" style="edgeStyle=orthogonalEdgeStyle;shape=connector;curved=0;rounded=1;hachureGap=4;orthogonalLoop=1;jettySize=auto;html=1;exitX=0.5;exitY=0;exitDx=0;exitDy=0;entryX=0.5;entryY=1;entryDx=0;entryDy=0;strokeColor=#000000;strokeWidth=2.5;align=center;verticalAlign=middle;fontFamily=Helvetica;fontSize=11;fontColor=default;labelBorderColor=none;labelBackgroundColor=default;endArrow=classic;endSize=2;" edge="1" parent="1" source="wk3JwMtCGkdnrWTBIIif-57" target="wk3JwMtCGkdnrWTBIIif-24">
          <mxGeometry relative="1" as="geometry" />
        </mxCell>
        <mxCell id="wk3JwMtCGkdnrWTBIIif-57" value="&lt;span style=&quot;font-size: 16px;&quot;&gt;Outputs&lt;/span&gt;&lt;div&gt;&lt;span style=&quot;font-size: 16px;&quot;&gt;(shifted right)&lt;/span&gt;&lt;/div&gt;" style="text;html=1;align=center;verticalAlign=top;whiteSpace=wrap;rounded=0;fontFamily=Helvetica;fontSize=11;fontColor=default;labelBackgroundColor=none;fillColor=none;" vertex="1" parent="1">
          <mxGeometry x="1147.5" y="1717" width="105" height="25" as="geometry" />
        </mxCell>
      </root>
    </mxGraphModel>
  </diagram>
</mxfile>
